<?xml version="1.0" encoding="iso-8859-1"?>
<!-- Generator: Adobe Illustrator 19.0.0, SVG Export Plug-In . SVG Version: 6.00 Build 0)  -->
<svg version="1.1" id="Capa_1" xmlns="http://www.w3.org/2000/svg" xmlns:xlink="http://www.w3.org/1999/xlink" x="0px" y="0px"
	 viewBox="0 0 480 480" style="enable-background:new 0 0 480 480;" xml:space="preserve">
<g>
	<g>
		<rect y="44" width="16" height="352"/>
	</g>
</g>
<g>
	<g>
		<polygon points="48,44 32,44 32,396 48,396 64,396 64,44 		"/>
	</g>
</g>
<g>
	<g>
		<polygon points="192,44 176,44 176,396 192,396 208,396 208,44 		"/>
	</g>
</g>
<g>
	<g>
		<polygon points="328,44 312,44 312,396 328,396 344,396 344,44 		"/>
	</g>
</g>
<g>
	<g>
		<polygon points="376,44 360,44 360,396 376,396 392,396 392,44 		"/>
	</g>
</g>
<g>
	<g>
		<rect x="80" y="44" width="16" height="352"/>
	</g>
</g>
<g>
	<g>
		<rect x="224" y="44" width="16" height="352"/>
	</g>
</g>
<g>
	<g>
		<rect x="248" y="44" width="16" height="352"/>
	</g>
</g>
<g>
	<g>
		<rect x="280" y="44" width="16" height="352"/>
	</g>
</g>
<g>
	<g>
		<polygon points="144,44 128,44 112,44 112,396 128,396 144,396 160,396 160,44 		"/>
	</g>
</g>
<g>
	<g>
		<polygon points="440,44 424,44 408,44 408,396 424,396 440,396 456,396 456,44 		"/>
	</g>
</g>
<g>
	<g>
		<rect x="464" y="44" width="16" height="352"/>
	</g>
</g>
<g>
	<g>
		<rect y="420" width="16" height="16"/>
	</g>
</g>
<g>
	<g>
		<rect x="32" y="420" width="32" height="16"/>
	</g>
</g>
<g>
	<g>
		<rect x="80" y="420" width="16" height="16"/>
	</g>
</g>
<g>
	<g>
		<rect x="112" y="420" width="48" height="16"/>
	</g>
</g>
<g>
	<g>
		<rect x="176" y="420" width="32" height="16"/>
	</g>
</g>
<g>
	<g>
		<rect x="224" y="420" width="16" height="16"/>
	</g>
</g>
<g>
	<g>
		<rect x="248" y="420" width="48" height="16"/>
	</g>
</g>
<g>
	<g>
		<rect x="312" y="420" width="32" height="16"/>
	</g>
</g>
<g>
	<g>
		<rect x="360" y="420" width="32" height="16"/>
	</g>
</g>
<g>
	<g>
		<rect x="408" y="420" width="72" height="16"/>
	</g>
</g>
<g>
</g>
<g>
</g>
<g>
</g>
<g>
</g>
<g>
</g>
<g>
</g>
<g>
</g>
<g>
</g>
<g>
</g>
<g>
</g>
<g>
</g>
<g>
</g>
<g>
</g>
<g>
</g>
<g>
</g>
</svg>
