<svg height="682pt" viewBox="-21 -114 682.66669 682" width="682pt" xmlns="http://www.w3.org/2000/svg"><path d="m571.25 102.917969c5.175781 0 9.375-4.195313 9.375-9.375 0-5.183594-4.199219-9.375-9.375-9.375h-163.207031c-5.183594 0-9.375 4.191406-9.375 9.375 0 5.179687 4.191406 9.375 9.375 9.375zm0 0"/><path d="m349.375 145.105469c0 5.179687 4.199219 9.375 9.375 9.375h212.5c5.175781 0 9.375-4.195313 9.375-9.375 0-5.183594-4.199219-9.375-9.375-9.375h-212.5c-5.175781 0-9.375 4.191406-9.375 9.375zm0 0"/><path d="m358.75 206.042969h212.5c5.175781 0 9.375-4.195313 9.375-9.375 0-5.183594-4.199219-9.375-9.375-9.375h-212.5c-5.175781 0-9.375 4.191406-9.375 9.375 0 5.179687 4.199219 9.375 9.375 9.375zm0 0"/><path d="m358.75 257.605469h212.5c5.175781 0 9.375-4.195313 9.375-9.375 0-5.183594-4.199219-9.375-9.375-9.375h-212.5c-5.175781 0-9.375 4.191406-9.375 9.375 0 5.179687 4.199219 9.375 9.375 9.375zm0 0"/><path d="m358.75 309.167969h128.546875c5.171875 0 9.375-4.195313 9.375-9.375 0-5.183594-4.203125-9.375-9.375-9.375h-128.546875c-5.175781 0-9.375 4.191406-9.375 9.375 0 5.179687 4.199219 9.375 9.375 9.375zm0 0"/><path d="m630.625 331.199219c-5.175781 0-9.375 4.191406-9.375 9.375v13.59375h-501.460938c-5.175781 0-9.375 4.191406-9.375 9.375 0 5.179687 4.199219 9.375 9.375 9.375h501.460938v40.625c0 8.617187-7.007812 15.625-15.625 15.625h-571.25c-8.617188 0-15.625-7.007813-15.625-15.625v-40.625h61.460938c5.175781 0 9.375-4.195313 9.375-9.375 0-5.183594-4.199219-9.375-9.375-9.375h-61.460938v-253.125c0-5.183594-4.199219-9.375-9.375-9.375s-9.375 4.191406-9.375 9.375v312.5c0 18.953125 15.421875 34.375 34.375 34.375h571.25c18.953125 0 34.375-15.421875 34.375-34.375v-72.96875c0-5.183594-4.199219-9.375-9.375-9.375zm0 0"/><path d="m605.625-5.832031h-571.25c-18.953125 0-34.375 15.417969-34.375 34.375v31.875c0 5.179687 4.199219 9.375 9.375 9.375s9.375-4.195313 9.375-9.375v-31.875c0-8.621094 7.007812-15.625 15.625-15.625h571.25c8.617188 0 15.625 7.003906 15.625 15.625v272.1875c0 5.179687 4.199219 9.375 9.375 9.375s9.375-4.195313 9.375-9.375v-272.1875c0-18.957031-15.421875-34.375-34.375-34.375zm0 0"/><path d="m286.25 288.847656c14.820312 0 26.875-12.054687 26.875-26.875v-152.5c0-14.816406-12.054688-26.875-26.875-26.875h-197.5c-14.820312 0-26.875 12.058594-26.875 26.875v152.5c0 14.820313 12.054688 26.875 26.875 26.875zm-205.625-26.875v-152.5c0-4.480468 3.640625-8.125 8.125-8.125h197.5c4.484375 0 8.125 3.644532 8.125 8.125v152.5c0 4.480469-3.640625 8.125-8.125 8.125h-197.5c-4.484375 0-8.125-3.644531-8.125-8.125zm0 0"/><path d="m155 249.15625h65c7.925781 0 14.375-6.449219 14.375-14.375v-20c0-16.488281-8.558594-31.015625-21.464844-39.375 5.566406-6.109375 8.964844-14.226562 8.964844-23.125 0-18.953125-15.421875-34.375-34.375-34.375s-34.375 15.421875-34.375 34.375c0 8.898438 3.398438 17.015625 8.964844 23.125-12.90625 8.359375-21.464844 22.886719-21.464844 39.375v20c0 7.925781 6.449219 14.375 14.375 14.375zm16.875-96.875c0-8.617188 7.007812-15.625 15.625-15.625s15.625 7.007812 15.625 15.625-7.007812 15.625-15.625 15.625-15.625-7.007812-15.625-15.625zm-12.5 62.5c0-15.507812 12.617188-28.125 28.125-28.125s28.125 12.617188 28.125 28.125v15.625h-56.25zm0 0"/></svg>